<svg class="ldi-y21ilk" width="64px"  height="64px"  xmlns="http://www.w3.org/2000/svg" xmlns:xlink="http://www.w3.org/1999/xlink" viewBox="0 0 100 100" preserveAspectRatio="xMidYMid" style="background: none;"><!--?xml version="1.0" encoding="utf-8"?--><!--Generator: Adobe Illustrator 21.0.0, SVG Export Plug-In . SVG Version: 6.00 Build 0)--><svg version="1.1" xmlns="http://www.w3.org/2000/svg" xmlns:xlink="http://www.w3.org/1999/xlink" x="0px" y="0px" viewBox="0 0 100 100" style="transform-origin: 50px 50px 0px;" xml:space="preserve"><g style="transform-origin: 50px 50px 0px; transform: scale(0.86);"><g style="transform-origin: 50px 50px 0px;">
<g class="ld ld-wrench" style="transform-origin: 50px 50px 0px; animation-duration: 1s; animation-delay: -0.916667s;">
<path class="st0" d="M79.6,44.474c-0.283-1.521-0.68-3.002-1.183-4.433l8.695-5.26c-1.366-3.317-3.166-6.407-5.328-9.206 l-8.901,4.899c-0.997-1.161-2.08-2.245-3.241-3.241l4.899-8.901c-2.799-2.162-5.889-3.962-9.206-5.328l-5.26,8.695 c-1.431-0.504-2.912-0.9-4.433-1.183l-0.207-10.154C53.694,10.131,51.922,10,50.117,10s-3.577,0.131-5.318,0.363l-0.207,10.154 c-1.521,0.283-3.002,0.68-4.433,1.183l-5.26-8.695c-3.317,1.366-6.407,3.166-9.206,5.328l4.899,8.901 c-1.161,0.997-2.245,2.08-3.241,3.241l-8.901-4.899c-2.162,2.799-3.962,5.889-5.328,9.206l8.695,5.26 c-0.504,1.431-0.9,2.912-1.183,4.433L10.48,44.682c-0.231,1.741-0.363,3.514-0.363,5.318s0.131,3.577,0.363,5.318l10.154,0.207 c0.283,1.521,0.68,3.002,1.183,4.433l-8.695,5.26c1.366,3.317,3.166,6.407,5.328,9.206l8.901-4.899 c0.997,1.161,2.08,2.245,3.241,3.241l-4.899,8.901c2.799,2.162,5.889,3.962,9.206,5.328l5.26-8.695 c1.431,0.504,2.912,0.9,4.433,1.183l0.207,10.154C46.54,89.869,48.313,90,50.117,90s3.577-0.131,5.318-0.363l0.207-10.154 c1.521-0.283,3.002-0.68,4.433-1.183l5.26,8.695c3.317-1.366,6.407-3.166,9.206-5.328l-4.899-8.901 c1.161-0.997,2.245-2.08,3.241-3.241l8.901,4.899c2.162-2.799,3.962-5.889,5.328-9.206l-8.695-5.26 c0.504-1.431,0.9-2.912,1.183-4.433l10.154-0.207c0.231-1.741,0.363-3.514,0.363-5.318s-0.131-3.577-0.363-5.318L79.6,44.474z M50,70c-11.046,0-20-8.954-20-20c0-11.046,8.954-20,20-20s20,8.954,20,20C70,61.046,61.046,70,50,70z" fill="#e7689b" stroke="#e7689b" style="fill: #e7689b; stroke: #e7689b;"></path></g>
<g class="ld ld-wrench" style="transform-origin: 50px 50px 0px; animation-duration: 1s; animation-delay: -0.833333s;"><path class="st1" d="M60.678,60.884c3.567-3.567,4.981-8.46,4.268-13.09c-0.091-0.589-0.822-0.821-1.243-0.4l-9.189,9.188 c-0.609,0.609-1.497,0.847-2.329,0.624l-6.049-1.621c-0.832-0.223-1.482-0.873-1.705-1.705l-1.621-6.049 c-0.223-0.832,0.015-1.72,0.624-2.329l9.188-9.188c0.423-0.423,0.188-1.154-0.403-1.245c-5.023-0.771-10.353,0.959-13.965,5.224 c-4.063,4.798-4.622,11.62-1.764,17.001L11.626,78.386c-2.926,2.733-3.005,7.346-0.174,10.177s7.445,2.752,10.177-0.174 l21.089-24.86C48.485,66.619,55.813,65.749,60.678,60.884z M14.314,85.702c-1.301-1.301-1.301-3.412,0-4.713s3.412-1.301,4.713,0 s1.301,3.412,0,4.713S15.616,87.004,14.314,85.702z" stroke="#001871" fill="#001871" style="stroke: #001871; fill: #001871;"></path></g></g></g><style type="text/css" class="ld ld-wrench" style="transform-origin: 50px 50px 0px; animation-duration: 1s; animation-delay: -0.333333s;">path,ellipse,circle,rect,polygon,polyline,line { stroke-width: 0; }@keyframes ld-wrench {
  20%, 36%, 70%, 86% {
    -webkit-transform: rotate(0deg);
    transform: rotate(0deg);
  }
  0%, 50%, 100% {
    -webkit-transform: rotate(45deg);
    transform: rotate(45deg);
  }
}
@-webkit-keyframes ld-wrench {
  20%, 36%, 70%, 86% {
    -webkit-transform: rotate(0deg);
    transform: rotate(0deg);
  }
  0%, 50%, 100% {
    -webkit-transform: rotate(45deg);
    transform: rotate(45deg);
  }
}
.ld.ld-wrench {
  -webkit-animation: ld-wrench 1s infinite;
  animation: ld-wrench 1s infinite;
}
</style></svg></svg>