<?xml version="1.0" standalone="no"?>
<!DOCTYPE svg PUBLIC "-//W3C//DTD SVG 20010904//EN"
 "http://www.w3.org/TR/2001/REC-SVG-20010904/DTD/svg10.dtd">
<svg version="1.0" xmlns="http://www.w3.org/2000/svg"
 width="816.000000pt" height="816.000000pt" viewBox="0 0 816.000000 816.000000"
 preserveAspectRatio="xMidYMid meet">
<metadata>
Created by potrace 1.14, written by Peter Selinger 2001-2017
</metadata>
<g transform="translate(0.000000,816.000000) scale(0.100000,-0.100000)"
fill="#000000" stroke="none">
<path d="M3990 7593 c-14 -2 -50 -11 -80 -20 -30 -9 -57 -17 -60 -18 -27 -6
-108 -60 -211 -141 -68 -54 -126 -100 -129 -104 -3 -3 -57 -46 -121 -97 -64
-50 -125 -98 -135 -106 -10 -9 -68 -55 -129 -103 -60 -48 -111 -90 -113 -95
-2 -5 -10 -9 -17 -9 -7 0 -15 -3 -17 -7 -1 -5 -37 -35 -78 -68 -41 -33 -84
-68 -95 -77 -11 -9 -339 -271 -730 -583 -390 -311 -720 -574 -731 -584 -12
-11 -52 -43 -90 -72 -38 -30 -71 -56 -74 -59 -3 -3 -48 -39 -100 -80 -52 -41
-104 -82 -115 -92 -35 -29 -391 -312 -431 -343 -80 -62 -138 -122 -168 -175
-32 -57 -33 -60 -42 -124 -7 -51 -7 -50 -4 -56 1 -3 4 -18 6 -35 3 -16 11 -46
19 -66 8 -20 11 -40 7 -44 -4 -5 -1 -5 6 -1 6 4 12 3 12 -2 0 -15 61 -76 102
-104 21 -14 36 -27 34 -29 -2 -2 10 -5 27 -6 17 -1 33 -6 36 -10 3 -5 22 -10
41 -12 19 -2 39 -6 45 -9 5 -3 124 -6 265 -6 l255 -1 2 -630 c1 -346 2 -632 3
-635 1 -3 1 -9 0 -15 -5 -22 -3 -452 3 -461 3 -6 3 -15 -1 -21 -6 -9 -7 -448
-2 -463 2 -3 1 -9 0 -15 -4 -15 -1 -387 3 -407 2 -10 6 -20 10 -24 4 -4 -1
-13 -11 -21 -14 -11 -14 -12 -1 -7 10 3 19 -1 23 -11 4 -11 2 -14 -7 -9 -7 4
-6 -1 3 -12 8 -10 26 -41 40 -67 14 -26 44 -68 67 -91 23 -24 39 -47 35 -51
-4 -5 -1 -5 5 -1 7 4 24 -4 40 -18 15 -15 31 -26 36 -26 4 0 5 -4 2 -10 -3 -6
1 -7 10 -4 8 4 21 2 28 -4 25 -20 96 -39 177 -48 48 -5 4770 -7 4860 -2 20 1
42 -2 49 -7 10 -5 12 -4 7 3 -4 8 1 12 13 13 30 2 30 2 99 28 34 13 62 28 62
34 0 6 3 7 7 4 3 -4 15 0 25 10 10 9 18 13 18 8 0 -4 9 4 21 19 11 14 25 24
30 20 5 -3 8 0 7 8 -2 7 3 12 10 11 6 -2 12 4 12 12 0 9 7 18 15 21 8 4 15 12
15 19 0 6 9 20 20 30 10 9 18 20 18 24 -1 3 6 21 15 38 10 18 17 35 17 38 0 3
0 6 1 8 7 23 11 46 11 65 0 12 3 22 7 22 8 0 6 1448 -2 1456 -3 4 -3 14 1 23
9 19 8 128 -1 137 -3 4 -3 14 1 23 9 19 8 128 -1 137 -3 4 -3 14 1 23 4 9 7
123 7 254 -1 163 2 237 9 237 8 0 8 3 0 8 -8 5 -11 60 -11 168 l1 161 263 -1
c145 -1 263 2 263 5 0 4 18 9 39 12 22 3 54 12 72 21 18 9 38 16 46 16 7 0 13
5 13 11 0 5 3 8 8 6 9 -4 102 90 94 97 -3 3 -1 6 4 6 14 0 44 71 47 109 1 17
6 31 10 31 5 0 6 4 3 8 -3 5 -8 32 -11 61 -3 29 -10 60 -14 70 -5 9 -14 28
-21 42 -22 48 -85 112 -205 208 -66 53 -127 101 -135 108 -8 7 -67 54 -130
104 -164 130 -201 161 -227 186 -13 12 -23 19 -23 16 0 -4 -16 10 -36 30 -22
22 -33 40 -28 48 4 8 3 10 -4 5 -19 -11 -30 32 -28 112 0 41 -2 76 -7 79 -4 2
-4 12 1 21 9 20 8 129 -1 138 -3 4 -3 14 1 23 9 19 8 123 -1 137 -3 6 -3 15 1
21 4 6 6 140 5 298 -1 256 -4 293 -22 353 -39 129 -130 236 -251 296 -117 59
-134 61 -495 60 -393 0 -411 -2 -530 -60 -72 -36 -175 -135 -210 -203 -26 -52
-41 -63 -51 -36 -4 8 -10 15 -15 15 -8 0 -29 15 -63 45 -6 6 -31 26 -56 45
-25 19 -47 37 -50 40 -3 3 -23 19 -45 36 -22 16 -44 34 -50 40 -5 6 -53 44
-105 85 -52 40 -97 76 -100 79 -3 3 -23 19 -45 35 -22 17 -42 32 -45 35 -3 3
-21 18 -40 33 -19 16 -48 39 -65 53 -37 29 -159 127 -200 159 -16 13 -55 44
-85 68 -72 58 -159 101 -240 119 -64 14 -181 20 -230 11z m201 -307 c20 -9 51
-29 67 -44 17 -15 45 -38 62 -51 16 -13 27 -27 24 -32 -3 -5 3 -6 12 -2 13 5
16 2 12 -8 -4 -11 0 -15 16 -15 12 1 20 -4 18 -12 -1 -8 1 -11 6 -8 11 7 73
-50 64 -59 -4 -5 -2 -5 4 -2 10 6 52 -23 96 -65 10 -10 21 -18 26 -18 4 0 23
-15 43 -33 20 -17 48 -41 63 -52 16 -11 41 -32 56 -47 16 -16 31 -28 34 -28 6
0 25 -15 72 -55 13 -11 55 -44 94 -74 38 -30 70 -58 70 -63 0 -4 6 -8 13 -8 7
0 20 -8 29 -17 8 -10 31 -29 49 -43 19 -14 44 -35 57 -47 12 -13 25 -22 28
-22 14 2 54 -43 48 -53 -4 -7 -3 -8 5 -4 10 7 58 -22 97 -59 29 -27 64 -54 98
-78 24 -16 33 -27 24 -30 -7 -3 -3 -6 10 -6 12 -1 22 -4 22 -8 0 -5 16 -19 35
-32 19 -13 32 -28 28 -34 -3 -5 -1 -7 5 -4 12 8 44 -2 37 -12 -9 -15 71 -6 88
10 27 25 33 63 31 201 -1 92 2 126 10 121 6 -4 5 1 -3 10 -11 14 -11 17 0 18
9 0 10 2 2 5 -7 4 -9 14 -3 33 12 43 30 72 40 66 6 -3 7 1 4 9 -3 9 2 17 15
21 12 3 21 10 21 15 0 26 74 33 360 36 306 2 348 -2 406 -39 31 -20 103 -130
74 -112 -10 6 -11 4 -4 -6 14 -22 15 -512 1 -521 -9 -6 -9 -8 0 -8 16 0 15
-230 -1 -230 -8 0 -8 -2 0 -8 7 -4 12 -61 12 -162 2 -150 3 -168 14 -200 3 -8
13 -36 23 -62 9 -27 21 -48 27 -48 6 0 8 -11 6 -24 -4 -19 -1 -23 10 -18 11 4
14 1 9 -12 -4 -9 -3 -15 1 -12 5 3 37 -22 72 -55 35 -32 69 -59 77 -59 12 0
17 -12 14 -32 0 -4 6 -5 14 -2 8 4 15 2 15 -3 0 -5 14 -17 30 -27 18 -10 28
-22 24 -29 -4 -7 -4 -9 1 -5 7 7 55 -25 105 -69 14 -13 28 -23 31 -23 4 0 20
-12 37 -27 50 -47 94 -83 98 -83 3 0 16 -11 30 -24 17 -15 22 -26 15 -30 -6
-4 -11 -12 -11 -19 0 -6 7 -2 15 9 15 19 15 19 34 -3 10 -12 21 -19 25 -16 3
4 6 1 6 -5 0 -7 7 -12 16 -12 8 0 12 -4 9 -10 -3 -5 -1 -10 5 -10 6 0 24 -13
39 -29 16 -16 31 -27 34 -24 9 9 37 -55 31 -71 -13 -33 -21 -34 -386 -36 -218
-1 -299 -4 -336 -15 -59 -18 -118 -73 -126 -120 -4 -19 -7 -239 -8 -489 0
-330 -4 -456 -12 -456 -8 0 -8 -2 0 -8 16 -10 16 -224 0 -234 -8 -6 -8 -8 0
-8 17 0 16 -710 0 -710 -8 0 -8 -2 0 -8 16 -10 16 -224 0 -234 -8 -6 -8 -8 0
-8 8 0 11 -88 12 -305 0 -217 -3 -303 -10 -299 -7 5 -8 2 -4 -5 22 -36 -60
-133 -128 -152 -56 -15 -4837 -15 -4895 1 -22 6 -41 15 -41 20 0 6 -6 10 -13
10 -13 0 -52 45 -74 88 -9 17 -9 22 0 22 9 0 9 2 1 8 -16 10 -17 642 0 642 8
0 8 2 0 8 -16 10 -16 224 0 234 8 6 8 8 -1 8 -16 0 -15 550 1 550 8 0 8 2 0 8
-16 10 -16 224 0 234 7 5 8 8 0 8 -15 0 -17 70 -1 70 8 0 9 2 1 8 -16 10 -16
224 0 234 7 5 8 8 0 8 -15 0 -17 70 -1 70 8 0 9 2 1 8 -15 10 -16 185 0 194 8
6 8 8 -1 8 -10 0 -12 55 -12 231 1 154 -3 235 -10 242 -6 6 -11 17 -11 25 0
19 -48 65 -90 87 -26 14 -63 19 -139 22 -57 1 -106 5 -109 7 -3 3 -9 3 -14 0
-8 -5 -118 -8 -145 -4 -5 1 -69 1 -144 0 -138 -1 -182 8 -194 38 -8 22 30 72
86 112 27 19 49 39 49 43 0 5 4 5 10 2 5 -3 10 -2 10 3 0 8 110 100 126 105 4
1 22 17 41 36 19 19 39 31 48 28 8 -4 12 -1 10 6 -5 14 50 60 71 60 8 0 12 2
10 5 -6 5 26 42 36 42 5 0 23 13 41 29 78 71 115 101 125 101 5 0 13 7 16 16
5 14 9 14 23 3 13 -11 15 -11 9 -1 -10 16 40 65 57 56 7 -4 9 -4 5 1 -4 4 9
21 30 37 59 46 89 71 129 105 20 17 41 29 46 26 6 -3 7 -1 3 5 -4 7 3 17 18
24 14 6 26 15 26 20 0 4 6 8 14 8 8 0 16 4 18 10 2 5 19 22 39 37 61 47 184
147 189 153 3 4 19 15 37 25 18 10 30 22 27 27 -3 4 0 8 6 8 6 0 17 6 25 13
15 14 34 30 95 77 25 19 50 39 56 45 32 28 54 44 54 40 0 -3 13 8 30 25 16 16
32 30 35 30 5 0 28 19 69 55 12 11 35 29 50 40 16 11 33 25 40 30 6 6 33 28
61 50 27 22 55 45 61 50 42 36 56 45 66 39 6 -4 8 -3 5 3 -4 6 9 22 27 37 19
14 41 33 50 42 9 8 16 13 16 10 0 -3 11 6 25 19 13 14 31 25 40 25 9 0 14 4
11 8 -2 4 9 17 25 27 16 11 29 23 29 28 0 4 6 7 14 7 8 0 17 7 20 16 4 9 9 14
12 11 3 -3 18 8 34 25 18 19 34 27 42 22 7 -4 10 -4 7 0 -8 8 37 56 51 56 6 0
10 5 10 10 0 6 5 10 10 10 6 0 21 10 34 23 32 30 70 61 76 61 3 0 18 12 34 26
15 14 38 34 51 45 12 11 35 29 49 39 15 11 37 28 49 38 12 11 32 28 45 39 12
10 26 19 32 19 5 0 13 6 17 13 10 16 153 130 153 122 0 -3 13 7 28 22 29 29
35 34 112 93 25 19 50 42 57 50 7 8 13 12 13 8 0 -3 16 8 35 25 100 93 157
119 245 114 36 -2 81 -11 101 -21z"/>
<path d="M4235 7071 c-3 -5 -2 -12 3 -15 5 -3 9 1 9 9 0 17 -3 19 -12 6z"/>
<path d="M3793 7015 c0 -8 4 -12 9 -9 5 3 6 10 3 15 -9 13 -12 11 -12 -6z"/>
<path d="M3870 7000 c0 -5 5 -10 11 -10 5 0 7 5 4 10 -3 6 -8 10 -11 10 -2 0
-4 -4 -4 -10z"/>
<path d="M4330 7006 c0 -2 7 -7 16 -10 8 -3 12 -2 9 4 -6 10 -25 14 -25 6z"/>
<path d="M4750 6760 c0 -5 5 -10 11 -10 5 0 7 5 4 10 -3 6 -8 10 -11 10 -2 0
-4 -4 -4 -10z"/>
<path d="M3430 6736 c0 -2 8 -10 18 -17 15 -13 16 -12 3 4 -13 16 -21 21 -21
13z"/>
<path d="M4796 6713 c-6 -14 -5 -15 5 -6 7 7 10 15 7 18 -3 3 -9 -2 -12 -12z"/>
<path d="M3313 6675 c0 -8 4 -12 9 -9 5 3 6 10 3 15 -9 13 -12 11 -12 -6z"/>
<path d="M4795 6671 c-3 -5 -2 -12 3 -15 5 -3 9 1 9 9 0 17 -3 19 -12 6z"/>
<path d="M4951 6527 c-13 -21 -12 -21 5 -5 10 10 16 20 13 22 -3 3 -11 -5 -18
-17z"/>
<path d="M6393 6535 c0 -8 4 -12 9 -9 5 3 6 10 3 15 -9 13 -12 11 -12 -6z"/>
<path d="M5955 6520 c3 -5 8 -10 11 -10 2 0 4 5 4 10 0 6 -5 10 -11 10 -5 0
-7 -4 -4 -10z"/>
<path d="M6030 6519 c0 -5 5 -7 10 -4 6 3 10 8 10 11 0 2 -4 4 -10 4 -5 0 -10
-5 -10 -11z"/>
<path d="M6513 6445 c0 -8 4 -12 9 -9 5 3 6 10 3 15 -9 13 -12 11 -12 -6z"/>
<path d="M5770 6446 c0 -2 7 -7 16 -10 8 -3 12 -2 9 4 -6 10 -25 14 -25 6z"/>
<path d="M6570 6446 c0 -2 7 -7 16 -10 8 -3 12 -2 9 4 -6 10 -25 14 -25 6z"/>
<path d="M5164 6402 c4 -3 14 -7 22 -8 9 -1 13 0 10 4 -4 3 -14 7 -22 8 -9 1
-13 0 -10 -4z"/>
<path d="M5230 6400 c0 -5 5 -10 11 -10 5 0 7 5 4 10 -3 6 -8 10 -11 10 -2 0
-4 -4 -4 -10z"/>
<path d="M5293 6375 c0 -8 4 -12 9 -9 5 3 6 10 3 15 -9 13 -12 11 -12 -6z"/>
<path d="M2919 6368 c-5 -18 -6 -38 -1 -34 7 8 12 36 6 36 -2 0 -4 -1 -5 -2z"/>
<path d="M3070 6326 c0 -2 7 -7 16 -10 8 -3 12 -2 9 4 -6 10 -25 14 -25 6z"/>
<path d="M5295 6320 c-3 -5 -1 -10 4 -10 6 0 11 5 11 10 0 6 -2 10 -4 10 -3 0
-8 -4 -11 -10z"/>
<path d="M6480 6320 c-9 -6 -10 -10 -3 -10 6 0 15 5 18 10 8 12 4 12 -15 0z"/>
<path d="M5376 6302 c-3 -5 1 -9 9 -9 8 0 12 4 9 9 -3 4 -7 8 -9 8 -2 0 -6 -4
-9 -8z"/>
<path d="M5293 6255 c0 -8 4 -12 9 -9 5 3 6 10 3 15 -9 13 -12 11 -12 -6z"/>
<path d="M5413 6225 c0 -8 4 -12 9 -9 5 3 6 10 3 15 -9 13 -12 11 -12 -6z"/>
<path d="M5450 6220 c0 -5 5 -10 11 -10 5 0 7 5 4 10 -3 6 -8 10 -11 10 -2 0
-4 -4 -4 -10z"/>
<path d="M2835 6209 c-4 -6 -5 -12 -2 -15 2 -3 7 2 10 11 7 17 1 20 -8 4z"/>
<path d="M2956 6202 c-3 -5 1 -9 9 -9 8 0 12 4 9 9 -3 4 -7 8 -9 8 -2 0 -6 -4
-9 -8z"/>
<path d="M5410 6180 c0 -5 5 -10 11 -10 5 0 7 5 4 10 -3 6 -8 10 -11 10 -2 0
-4 -4 -4 -10z"/>
<path d="M5530 6180 c0 -5 5 -10 11 -10 5 0 7 5 4 10 -3 6 -8 10 -11 10 -2 0
-4 -4 -4 -10z"/>
<path d="M5555 6100 c3 -5 8 -10 11 -10 2 0 4 5 4 10 0 6 -5 10 -11 10 -5 0
-7 -4 -4 -10z"/>
<path d="M3635 5976 c-14 -13 -25 -26 -25 -29 0 -3 34 -40 75 -82 81 -82 91
-102 81 -169 -14 -89 -93 -168 -182 -182 -67 -10 -90 1 -170 81 -41 41 -78 75
-81 75 -3 0 -16 -11 -28 -25 l-23 -24 70 -123 c38 -68 80 -134 93 -147 39 -40
113 -59 225 -56 113 3 132 -3 196 -69 l42 -44 -279 -275 c-153 -152 -280 -283
-280 -292 -1 -8 -1 -22 -1 -30 0 -8 0 -21 1 -29 1 -19 120 -136 149 -147 51
-19 17 -47 363 297 141 140 260 254 264 254 4 0 126 -119 272 -265 146 -146
278 -272 294 -280 34 -18 101 -12 134 13 47 34 66 112 40 161 -8 17 -151 165
-316 331 l-302 301 199 200 c184 183 202 198 230 195 17 -2 35 -1 41 2 5 4 45
52 87 106 l77 99 -52 54 c-30 29 -57 53 -61 53 -5 0 -30 -17 -56 -37 -27 -21
-63 -49 -82 -63 -65 -50 -70 -56 -70 -96 0 -37 -8 -48 -193 -232 -106 -105
-196 -192 -200 -192 -12 0 -162 152 -176 178 -7 14 -10 56 -7 120 5 108 -13
183 -52 225 -12 12 -64 47 -117 77 -53 30 -109 63 -125 72 -29 17 -30 17 -55
-6z m1142 -1394 c6 -4 16 -19 22 -34 8 -22 6 -30 -14 -52 -21 -23 -27 -25 -52
-15 -31 12 -43 26 -43 53 0 41 52 70 87 48z"/>
<path d="M2206 5762 c-3 -5 1 -9 9 -9 8 0 12 4 9 9 -3 4 -7 8 -9 8 -2 0 -6 -4
-9 -8z"/>
<path d="M2393 5725 c0 -8 4 -12 9 -9 5 3 6 10 3 15 -9 13 -12 11 -12 -6z"/>
<path d="M2020 5640 c-9 -6 -10 -10 -3 -10 6 0 15 5 18 10 8 12 4 12 -15 0z"/>
<path d="M2030 5560 c0 -5 5 -10 11 -10 5 0 7 5 4 10 -3 6 -8 10 -11 10 -2 0
-4 -4 -4 -10z"/>
<path d="M1716 5387 c3 -10 9 -15 12 -12 3 3 0 11 -7 18 -10 9 -11 8 -5 -6z"/>
<path d="M1555 5321 c-3 -5 -2 -12 3 -15 5 -3 9 1 9 9 0 17 -3 19 -12 6z"/>
<path d="M1710 5319 c0 -5 5 -7 10 -4 6 3 10 8 10 11 0 2 -4 4 -10 4 -5 0 -10
-5 -10 -11z"/>
<path d="M1526 5282 c-3 -5 1 -9 9 -9 8 0 12 4 9 9 -3 4 -7 8 -9 8 -2 0 -6 -4
-9 -8z"/>
<path d="M1635 5240 c3 -5 8 -10 11 -10 2 0 4 5 4 10 0 6 -5 10 -11 10 -5 0
-7 -4 -4 -10z"/>
<path d="M1586 5202 c-3 -5 1 -9 9 -9 8 0 12 4 9 9 -3 4 -7 8 -9 8 -2 0 -6 -4
-9 -8z"/>
<path d="M1515 5160 c3 -5 8 -10 11 -10 2 0 4 5 4 10 0 6 -5 10 -11 10 -5 0
-7 -4 -4 -10z"/>
<path d="M1376 5078 c3 -5 10 -6 15 -3 13 9 11 12 -6 12 -8 0 -12 -4 -9 -9z"/>
<path d="M6870 5056 c0 -2 8 -10 18 -17 15 -13 16 -12 3 4 -13 16 -21 21 -21
13z"/>
<path d="M1296 5042 c-3 -5 1 -9 9 -9 8 0 12 4 9 9 -3 4 -7 8 -9 8 -2 0 -6 -4
-9 -8z"/>
<path d="M6953 4985 c0 -8 4 -12 9 -9 5 3 6 10 3 15 -9 13 -12 11 -12 -6z"/>
<path d="M6790 4976 c0 -2 8 -10 18 -17 15 -13 16 -12 3 4 -13 16 -21 21 -21
13z"/>
<path d="M1150 4846 c0 -2 7 -7 16 -10 8 -3 12 -2 9 4 -6 10 -25 14 -25 6z"/>
<path d="M1035 4829 c-4 -6 -5 -12 -2 -15 2 -3 7 2 10 11 7 17 1 20 -8 4z"/>
<path d="M1113 4755 c0 -8 4 -12 9 -9 5 3 6 10 3 15 -9 13 -12 11 -12 -6z"/>
<path d="M2428 4022 l-38 -3 0 -197 0 -197 163 1 c98 0 168 -4 176 -10 10 -8
13 -8 9 -1 -4 7 21 11 73 11 43 -1 80 -3 80 -6 1 -3 2 -259 3 -569 l2 -565 26
-7 c17 -4 28 -3 31 4 2 6 9 7 17 2 18 -11 80 -13 80 -2 0 4 8 4 18 -1 9 -5 56
-7 104 -6 63 1 86 -2 81 -10 -5 -8 -3 -8 8 0 8 6 40 10 72 10 39 -1 57 3 57
12 0 6 6 12 13 12 8 0 9 2 1 8 -15 9 -15 64 -1 55 6 -4 7 -1 1 8 -12 18 -14
161 -2 176 6 7 5 14 -3 18 -8 6 -7 10 2 16 8 5 9 9 3 9 -15 0 -17 70 -1 70 8
0 7 4 -3 10 -13 9 -13 10 0 10 13 0 13 1 0 10 -13 8 -13 13 -2 31 8 11 10 19
5 16 -5 -3 -10 13 -10 36 -1 23 4 45 11 49 8 6 8 8 -1 8 -6 0 -11 13 -11 30 1
27 9 35 31 31 5 -1 6 3 2 8 -3 6 -12 8 -20 4 -10 -3 -15 2 -15 16 0 12 6 21
13 21 9 0 9 2 -1 9 -19 12 -19 15 -2 36 8 11 10 16 4 12 -15 -9 -14 175 1 185
6 5 6 8 -2 8 -13 0 -13 77 0 97 4 6 3 14 -1 17 -14 8 -13 76 1 76 8 0 8 3 2 8
-6 4 -11 14 -10 22 0 17 33 20 53 6 8 -6 17 -5 24 2 15 15 32 16 23 2 -4 -7 3
-7 20 0 33 13 38 13 29 -1 -5 -8 -1 -8 14 0 27 14 35 14 26 -1 -6 -10 -4 -10
7 0 16 14 33 16 24 2 -3 -5 -1 -10 4 -10 6 0 11 4 11 8 0 4 60 8 133 7 l132 0
0 40 c0 22 4 46 8 53 5 6 5 12 0 12 -4 0 -8 63 -7 141 0 101 -3 142 -11 146
-22 8 -385 8 -385 0 0 -5 -5 -5 -11 -2 -10 7 -990 13 -1061 7z"/>
<path d="M4130 4015 c-9 -11 -10 -21 -9 -85 0 -19 0 -43 0 -52 -1 -27 -2 -49
-1 -93 0 -22 0 -49 0 -60 -1 -11 1 -41 2 -67 2 -27 0 -48 -4 -48 -7 0 -2 -59
6 -67 3 -3 1 -16 -5 -30 -5 -15 -5 -22 0 -18 6 3 6 -7 1 -26 -6 -21 -6 -39 2
-52 8 -16 8 -22 -1 -25 -6 -2 -9 -8 -6 -12 3 -5 5 -30 5 -57 0 -26 0 -56 0
-65 0 -10 0 -43 0 -73 0 -30 0 -63 0 -72 0 -10 0 -38 1 -63 0 -25 0 -50 -1
-55 -1 -6 -1 -12 0 -15 5 -13 4 -90 -1 -90 -7 0 -2 -56 5 -77 3 -6 1 -25 -4
-42 -4 -16 -6 -32 -3 -35 9 -9 12 -66 4 -66 -4 0 -7 -10 -5 -22 1 -13 3 -23 4
-23 6 0 4 -98 -3 -102 -4 -2 -3 -12 3 -23 6 -12 24 -19 54 -21 24 -2 42 -1 40
3 -3 4 2 5 10 2 24 -9 167 -11 172 -2 3 5 10 5 16 1 7 -3 58 -7 114 -7 87 -1
101 1 91 13 -12 15 -12 18 5 39 7 8 7 12 -1 12 -9 0 -9 5 -1 20 8 15 8 20 -1
20 -8 0 -8 4 1 15 10 12 10 15 0 15 -10 0 -10 3 0 15 9 11 9 15 1 15 -7 0 -9
5 -5 12 10 15 13 48 5 48 -3 0 -5 28 -5 62 1 49 5 63 17 62 8 -1 14 6 13 15 0
9 6 16 14 16 8 0 14 -6 12 -13 -1 -8 2 -11 9 -7 7 5 8 10 0 18 -14 14 27 50
47 42 12 -4 13 -3 2 10 -9 11 -9 15 -1 15 7 0 18 6 25 13 8 6 28 23 45 37 17
14 43 36 58 49 24 21 28 22 31 8 2 -9 8 -17 13 -17 5 0 9 -6 9 -14 0 -7 7 -19
15 -26 8 -7 12 -16 9 -21 -3 -5 0 -9 6 -9 7 0 9 -7 6 -16 -3 -8 -2 -13 2 -10
9 5 90 -137 82 -142 -3 -2 3 -8 13 -13 9 -6 15 -14 12 -20 -4 -5 -2 -9 4 -9 5
0 15 -16 22 -35 7 -19 17 -35 21 -35 4 0 8 -4 8 -9 0 -5 18 -39 40 -75 22 -36
40 -70 40 -76 0 -14 61 -28 85 -20 11 4 29 4 40 0 21 -7 139 -4 161 4 8 3 15
2 18 -2 3 -6 84 -6 216 -2 8 1 30 -1 48 -3 35 -5 52 7 26 17 -9 4 -14 13 -10
22 3 8 2 13 -2 10 -4 -2 -24 22 -44 54 -24 38 -32 61 -25 64 7 3 6 5 -3 5 -15
1 -90 111 -90 131 0 5 -4 10 -10 10 -5 0 -10 7 -10 15 0 8 -4 15 -10 15 -5 0
-10 5 -10 11 0 6 -13 30 -30 54 -16 24 -30 48 -30 54 0 6 -4 11 -10 11 -5 0
-10 4 -10 9 0 6 -13 30 -30 54 -16 25 -30 50 -30 56 0 6 -4 11 -10 11 -5 0
-10 7 -10 15 0 8 -4 15 -10 15 -5 0 -10 7 -10 15 0 8 -4 15 -10 15 -5 0 -10 9
-10 20 0 11 -4 20 -10 20 -5 0 -10 5 -10 11 0 6 -7 17 -15 26 -8 8 -13 19 -10
24 4 5 2 9 -3 9 -9 0 -27 25 -73 108 l-19 32 28 32 c15 17 42 46 60 65 17 18
32 38 32 44 0 6 6 9 14 6 7 -3 13 0 12 7 0 7 24 42 56 77 31 35 107 123 169
194 62 72 125 144 141 160 34 36 35 45 6 46 -27 0 -522 0 -559 -1 -20 0 -44
-23 -115 -107 -103 -125 -132 -160 -156 -185 -10 -10 -18 -20 -18 -22 0 -11
-53 -61 -62 -58 -5 1 -7 -2 -4 -6 3 -5 -2 -19 -12 -30 -9 -11 -31 -37 -49 -59
-59 -72 -70 -83 -78 -75 -5 4 -5 2 -2 -4 8 -13 -42 -76 -54 -68 -5 3 -6 -1 -3
-9 3 -8 -1 -17 -8 -19 -10 -4 -13 8 -12 51 0 31 3 61 6 67 4 5 3 16 -2 24 -5
8 -5 22 1 32 6 12 6 18 -1 18 -12 0 -9 22 5 32 7 5 6 8 -1 8 -11 0 -12 59 -1
78 4 6 3 13 -3 17 -7 4 -7 12 0 26 6 10 7 19 3 19 -4 0 -7 39 -6 87 2 49 3 93
3 98 1 29 -6 74 -12 80 -11 11 -469 11 -478 0z"/>
<path d="M3979 3833 c-13 -16 -12 -17 4 -4 16 13 21 21 13 21 -2 0 -10 -8 -17
-17z"/>
<path d="M5535 3669 c-4 -6 -5 -12 -2 -15 2 -3 7 2 10 11 7 17 1 20 -8 4z"/>
<path d="M5555 3620 c3 -5 8 -10 11 -10 2 0 4 5 4 10 0 6 -5 10 -11 10 -5 0
-7 -4 -4 -10z"/>
<path d="M3730 3600 c0 -5 5 -10 11 -10 5 0 7 5 4 10 -3 6 -8 10 -11 10 -2 0
-4 -4 -4 -10z"/>
<path d="M5436 3593 c-4 -9 -3 -20 1 -24 4 -4 9 3 9 17 2 28 -1 31 -10 7z"/>
<path d="M5470 3606 c0 -2 7 -7 16 -10 8 -3 12 -2 9 4 -6 10 -25 14 -25 6z"/>
<path d="M3530 3580 c0 -5 5 -10 11 -10 5 0 7 5 4 10 -3 6 -8 10 -11 10 -2 0
-4 -4 -4 -10z"/>
<path d="M2850 3559 c0 -5 5 -7 10 -4 6 3 10 8 10 11 0 2 -4 4 -10 4 -5 0 -10
-5 -10 -11z"/>
<path d="M3805 3560 c-3 -6 1 -7 9 -4 18 7 21 14 7 14 -6 0 -13 -4 -16 -10z"/>
<path d="M3530 3539 c0 -5 5 -7 10 -4 6 3 10 8 10 11 0 2 -4 4 -10 4 -5 0 -10
-5 -10 -11z"/>
<path d="M3575 3540 c3 -5 8 -10 11 -10 2 0 4 5 4 10 0 6 -5 10 -11 10 -5 0
-7 -4 -4 -10z"/>
<path d="M4655 3540 c-3 -5 -1 -10 4 -10 6 0 11 5 11 10 0 6 -2 10 -4 10 -3 0
-8 -4 -11 -10z"/>
<path d="M5494 3542 c4 -3 14 -7 22 -8 9 -1 13 0 10 4 -4 3 -14 7 -22 8 -9 1
-13 0 -10 -4z"/>
<path d="M3473 3525 c0 -8 4 -15 9 -15 4 0 8 4 8 9 0 6 -4 12 -8 15 -5 3 -9
-1 -9 -9z"/>
<path d="M2636 3513 c-6 -14 -5 -15 5 -6 7 7 10 15 7 18 -3 3 -9 -2 -12 -12z"/>
<path d="M3755 3521 c-3 -5 -2 -12 3 -15 5 -3 9 1 9 9 0 17 -3 19 -12 6z"/>
<path d="M3530 3499 c0 -5 5 -7 10 -4 6 3 10 8 10 11 0 2 -4 4 -10 4 -5 0 -10
-5 -10 -11z"/>
<path d="M4655 3500 c3 -5 8 -10 11 -10 2 0 4 5 4 10 0 6 -5 10 -11 10 -5 0
-7 -4 -4 -10z"/>
<path d="M5475 3500 c-3 -5 -1 -10 4 -10 6 0 11 5 11 10 0 6 -2 10 -4 10 -3 0
-8 -4 -11 -10z"/>
<path d="M3593 3485 c0 -8 4 -12 9 -9 5 3 6 10 3 15 -9 13 -12 11 -12 -6z"/>
<path d="M3534 3456 c1 -8 5 -18 8 -22 4 -3 5 1 4 10 -1 8 -5 18 -8 22 -4 3
-5 -1 -4 -10z"/>
<path d="M4650 3460 c0 -5 5 -10 11 -10 5 0 7 5 4 10 -3 6 -8 10 -11 10 -2 0
-4 -4 -4 -10z"/>
<path d="M5454 3456 c1 -8 5 -18 8 -22 4 -3 5 1 4 10 -1 8 -5 18 -8 22 -4 3
-5 -1 -4 -10z"/>
<path d="M5359 3433 c-13 -16 -12 -17 4 -4 9 7 17 15 17 17 0 8 -8 3 -21 -13z"/>
<path d="M3545 3400 c-3 -6 1 -7 9 -4 18 7 21 14 7 14 -6 0 -13 -4 -16 -10z"/>
<path d="M3493 3375 c0 -8 4 -12 9 -9 5 3 6 10 3 15 -9 13 -12 11 -12 -6z"/>
<path d="M5413 3375 c0 -8 4 -12 9 -9 5 3 6 10 3 15 -9 13 -12 11 -12 -6z"/>
<path d="M3640 3360 c-9 -6 -10 -10 -3 -10 6 0 15 5 18 10 8 12 4 12 -15 0z"/>
<path d="M5310 3319 c0 -5 5 -7 10 -4 6 3 10 8 10 11 0 2 -4 4 -10 4 -5 0 -10
-5 -10 -11z"/>
<path d="M3410 3299 c0 -5 5 -7 10 -4 6 3 10 8 10 11 0 2 -4 4 -10 4 -5 0 -10
-5 -10 -11z"/>
<path d="M3454 3302 c4 -3 14 -7 22 -8 9 -1 13 0 10 4 -4 3 -14 7 -22 8 -9 1
-13 0 -10 -4z"/>
<path d="M5376 3302 c-3 -5 1 -9 9 -9 8 0 12 4 9 9 -3 4 -7 8 -9 8 -2 0 -6 -4
-9 -8z"/>
<path d="M3510 3260 c0 -5 5 -10 11 -10 5 0 7 5 4 10 -3 6 -8 10 -11 10 -2 0
-4 -4 -4 -10z"/>
<path d="M3417 3235 c-4 -8 -3 -16 1 -19 4 -3 9 4 9 15 2 23 -3 25 -10 4z"/>
<path d="M5390 3160 c0 -5 5 -10 11 -10 5 0 7 5 4 10 -3 6 -8 10 -11 10 -2 0
-4 -4 -4 -10z"/>
<path d="M3436 3147 c3 -10 9 -15 12 -12 3 3 0 11 -7 18 -10 9 -11 8 -5 -6z"/>
<path d="M3456 3102 c-3 -4 4 -9 15 -9 23 -2 25 3 4 10 -8 4 -16 3 -19 -1z"/>
<path d="M3417 2995 c-4 -8 -3 -16 1 -19 4 -3 9 4 9 15 2 23 -3 25 -10 4z"/>
<path d="M4873 2995 c0 -8 4 -12 9 -9 5 3 6 10 3 15 -9 13 -12 11 -12 -6z"/>
<path d="M4820 2926 c0 -2 8 -10 18 -17 15 -13 16 -12 3 4 -13 16 -21 21 -21
13z"/>
<path d="M4793 2885 c0 -8 4 -12 9 -9 5 3 6 10 3 15 -9 13 -12 11 -12 -6z"/>
<path d="M4759 2873 c-13 -16 -12 -17 4 -4 16 13 21 21 13 21 -2 0 -10 -8 -17
-17z"/>
<path d="M4935 2871 c-3 -5 -2 -12 3 -15 5 -3 9 1 9 9 0 17 -3 19 -12 6z"/>
<path d="M4877 2853 c-10 -9 -9 -23 1 -23 5 0 9 7 9 15 0 17 -1 18 -10 8z"/>
<path d="M3415 2820 c3 -5 8 -10 11 -10 2 0 4 5 4 10 0 6 -5 10 -11 10 -5 0
-7 -4 -4 -10z"/>
<path d="M4815 2820 c-3 -5 -1 -10 4 -10 6 0 11 5 11 10 0 6 -2 10 -4 10 -3 0
-8 -4 -11 -10z"/>
<path d="M3455 2791 c-3 -5 -2 -12 3 -15 5 -3 9 1 9 9 0 17 -3 19 -12 6z"/>
<path d="M4773 2735 c0 -8 4 -12 9 -9 5 3 6 10 3 15 -9 13 -12 11 -12 -6z"/>
<path d="M3575 2731 c-3 -5 -2 -12 3 -15 5 -3 9 1 9 9 0 17 -3 19 -12 6z"/>
<path d="M4955 2720 c-3 -5 -1 -10 4 -10 6 0 11 5 11 10 0 6 -2 10 -4 10 -3 0
-8 -4 -11 -10z"/>
<path d="M3434 2702 c4 -3 14 -7 22 -8 9 -1 13 0 10 4 -4 3 -14 7 -22 8 -9 1
-13 0 -10 -4z"/>
<path d="M4906 2682 c-3 -5 1 -9 9 -9 8 0 12 4 9 9 -3 4 -7 8 -9 8 -2 0 -6 -4
-9 -8z"/>
<path d="M3410 2660 c0 -5 5 -10 11 -10 5 0 7 5 4 10 -3 6 -8 10 -11 10 -2 0
-4 -4 -4 -10z"/>
<path d="M4746 2642 c-3 -5 1 -9 9 -9 8 0 12 4 9 9 -3 4 -7 8 -9 8 -2 0 -6 -4
-9 -8z"/>
<path d="M4646 2618 c3 -5 10 -6 15 -3 13 9 11 12 -6 12 -8 0 -12 -4 -9 -9z"/>
<path d="M4696 2622 c-3 -5 1 -9 9 -9 8 0 12 4 9 9 -3 4 -7 8 -9 8 -2 0 -6 -4
-9 -8z"/>
<path d="M4655 2591 c-3 -5 -2 -12 3 -15 5 -3 9 1 9 9 0 17 -3 19 -12 6z"/>
<path d="M4635 2500 c3 -5 8 -10 11 -10 2 0 4 5 4 10 0 6 -5 10 -11 10 -5 0
-7 -4 -4 -10z"/>
<path d="M5515 2451 c-3 -5 -2 -12 3 -15 5 -3 9 1 9 9 0 17 -3 19 -12 6z"/>
<path d="M5676 2442 c-3 -5 1 -9 9 -9 8 0 12 4 9 9 -3 4 -7 8 -9 8 -2 0 -6 -4
-9 -8z"/>
<path d="M5395 2411 c-3 -5 -2 -12 3 -15 5 -3 9 1 9 9 0 17 -3 19 -12 6z"/>
<path d="M7075 6120 c-3 -5 -1 -10 4 -10 6 0 11 5 11 10 0 6 -2 10 -4 10 -3 0
-8 -4 -11 -10z"/>
<path d="M329 4323 c-13 -16 -12 -17 4 -4 9 7 17 15 17 17 0 8 -8 3 -21 -13z"/>
<path d="M7675 4270 c-4 -6 -11 -7 -17 -4 -7 4 -8 2 -4 -5 6 -9 11 -9 22 0 14
11 18 19 10 19 -3 0 -8 -5 -11 -10z"/>
<path d="M7534 4236 c1 -8 5 -18 8 -22 4 -3 5 1 4 10 -1 8 -5 18 -8 22 -4 3
-5 -1 -4 -10z"/>
<path d="M566 4218 c3 -5 10 -6 15 -3 13 9 11 12 -6 12 -8 0 -12 -4 -9 -9z"/>
<path d="M614 4218 c-4 -7 -4 -10 1 -6 4 4 15 2 24 -5 14 -11 14 -10 2 6 -16
20 -18 21 -27 5z"/>
<path d="M7826 4222 c-3 -5 1 -9 9 -9 8 0 12 4 9 9 -3 4 -7 8 -9 8 -2 0 -6 -4
-9 -8z"/>
<path d="M7533 4175 c0 -8 4 -12 9 -9 5 3 6 10 3 15 -9 13 -12 11 -12 -6z"/>
<path d="M654 4156 c1 -8 5 -18 8 -22 4 -3 5 1 4 10 -1 8 -5 18 -8 22 -4 3 -5
-1 -4 -10z"/>
<path d="M800 4160 c8 -5 20 -10 25 -10 6 0 3 5 -5 10 -8 5 -19 10 -25 10 -5
0 -3 -5 5 -10z"/>
<path d="M875 4160 c-3 -5 -1 -10 4 -10 6 0 11 5 11 10 0 6 -2 10 -4 10 -3 0
-8 -4 -11 -10z"/>
<path d="M7460 4160 c-9 -6 -10 -10 -3 -10 6 0 15 5 18 10 8 12 4 12 -15 0z"/>
<path d="M7410 4120 c0 -5 5 -10 11 -10 5 0 7 5 4 10 -3 6 -8 10 -11 10 -2 0
-4 -4 -4 -10z"/>
<path d="M676 4107 c3 -10 9 -15 12 -12 3 3 0 11 -7 18 -10 9 -11 8 -5 -6z"/>
<path d="M830 4081 c0 -6 4 -13 10 -16 6 -3 7 1 4 9 -7 18 -14 21 -14 7z"/>
<path d="M870 4079 c0 -5 5 -7 10 -4 6 3 10 8 10 11 0 2 -4 4 -10 4 -5 0 -10
-5 -10 -11z"/>
<path d="M1115 4080 c-3 -5 -1 -10 4 -10 6 0 11 5 11 10 0 6 -2 10 -4 10 -3 0
-8 -4 -11 -10z"/>
<path d="M7053 4055 c0 -8 4 -12 9 -9 5 3 6 10 3 15 -9 13 -12 11 -12 -6z"/>
<path d="M1075 4029 c-4 -6 -5 -12 -2 -15 2 -3 7 2 10 11 7 17 1 20 -8 4z"/>
<path d="M7475 3971 c-3 -5 -2 -12 3 -15 5 -3 9 1 9 9 0 17 -3 19 -12 6z"/>
<path d="M6830 1261 c0 -6 4 -13 10 -16 6 -3 7 1 4 9 -7 18 -14 21 -14 7z"/>
<path d="M1393 1225 c0 -8 4 -12 9 -9 5 3 6 10 3 15 -9 13 -12 11 -12 -6z"/>
<path d="M6680 1200 c-8 -5 -10 -10 -5 -10 6 0 17 5 25 10 8 5 11 10 5 10 -5
0 -17 -5 -25 -10z"/>
<path d="M6730 1206 c0 -2 7 -7 16 -10 8 -3 12 -2 9 4 -6 10 -25 14 -25 6z"/>
<path d="M1436 1173 c-6 -14 -5 -15 5 -6 7 7 10 15 7 18 -3 3 -9 -2 -12 -12z"/>
<path d="M3039 1153 c-13 -16 -12 -17 4 -4 9 7 17 15 17 17 0 8 -8 3 -21 -13z"/>
<path d="M5024 1162 c4 -3 14 -7 22 -8 9 -1 13 0 10 4 -4 3 -14 7 -22 8 -9 1
-13 0 -10 -4z"/>
<path d="M1599 1078 c-5 -18 -6 -38 -1 -34 7 8 12 36 6 36 -2 0 -4 -1 -5 -2z"/>
<path d="M4316 1033 c-6 -14 -5 -15 5 -6 7 7 10 15 7 18 -3 3 -9 -2 -12 -12z"/>
<path d="M5596 1033 c-6 -14 -5 -15 5 -6 7 7 10 15 7 18 -3 3 -9 -2 -12 -12z"/>
<path d="M6476 1033 c-6 -14 -5 -15 5 -6 7 7 10 15 7 18 -3 3 -9 -2 -12 -12z"/>
<path d="M1955 1001 c-3 -5 -2 -12 3 -15 5 -3 9 1 9 9 0 17 -3 19 -12 6z"/>
<path d="M1990 1006 c0 -2 7 -7 16 -10 8 -3 12 -2 9 4 -6 10 -25 14 -25 6z"/>
<path d="M3105 1000 c-3 -6 1 -7 9 -4 18 7 21 14 7 14 -6 0 -13 -4 -16 -10z"/>
<path d="M3875 1001 c-3 -5 -2 -12 3 -15 5 -3 9 1 9 9 0 17 -3 19 -12 6z"/>
<path d="M3910 1006 c0 -2 7 -7 16 -10 8 -3 12 -2 9 4 -6 10 -25 14 -25 6z"/>
<path d="M5025 1000 c-3 -6 1 -7 9 -4 18 7 21 14 7 14 -6 0 -13 -4 -16 -10z"/>
<path d="M5155 1001 c-3 -5 -2 -12 3 -15 5 -3 9 1 9 9 0 17 -3 19 -12 6z"/>
<path d="M5190 1006 c0 -2 7 -7 16 -10 8 -3 12 -2 9 4 -6 10 -25 14 -25 6z"/>
<path d="M6305 1000 c-3 -6 1 -7 9 -4 18 7 21 14 7 14 -6 0 -13 -4 -16 -10z"/>
<path d="M2870 961 c0 -6 4 -13 10 -16 6 -3 7 1 4 9 -7 18 -14 21 -14 7z"/>
<path d="M4790 961 c0 -6 4 -13 10 -16 6 -3 7 1 4 9 -7 18 -14 21 -14 7z"/>
<path d="M5114 926 c1 -8 5 -18 8 -22 4 -3 5 1 4 10 -1 8 -5 18 -8 22 -4 3 -5
-1 -4 -10z"/>
<path d="M2315 881 c-3 -5 -2 -12 3 -15 5 -3 9 1 9 9 0 17 -3 19 -12 6z"/>
<path d="M4235 881 c-3 -5 -2 -12 3 -15 5 -3 9 1 9 9 0 17 -3 19 -12 6z"/>
<path d="M5515 881 c-3 -5 -2 -12 3 -15 5 -3 9 1 9 9 0 17 -3 19 -12 6z"/>
</g>
</svg>
