<!-- <svg stroke="currentColor" fill="currentColor" stroke-width="0" viewBox="0 0 24 24" height="3em" width="3em" xmlns="http://www.w3.org/2000/svg"><path d="M12 2C8.13 2 5 5.13 5 9c0 5.25 7 13 7 13s7-7.75 7-13c0-3.87-3.13-7-7-7zm0 9.5c-1.38 0-2.5-1.12-2.5-2.5s1.12-2.5 2.5-2.5 2.5 1.12 2.5 2.5-1.12 2.5-2.5 2.5z"></path></svg> -->

<svg height="3em" style="fill-rule:evenodd;clip-rule:evenodd;stroke-linecap:round;stroke-linejoin:round;" xmlns:xlink="http://www.w3.org/1999/xlink" xmlns="http://www.w3.org/2000/svg" xml:space="preserve" width="3em"  version="1.1" viewBox="0 0 24 24">
<defs/>
<g id="Layer 1" >
<path stroke="#de77a1" stroke-width="5" d="M8.72731+6.8896C7.22327+9.04223+7.98764+11.0653+10.7519+11.2142C11.2642+11.2418+11.9752+11.3755+12.4688+11.1925C13.8535+10.6791+15.108+8.5371+13.7363+7.36134C12.9748+6.70864+11.7253+6.64837+10.7673+6.64837C10.1781+6.64837+9.39858+6.83288+8.89781+7.14603C8.75952+7.23251+8.27537+7.76328+8.17233+7.76328" fill="#de77a1" stroke-linecap="butt" opacity="1" stroke-linejoin="miter"/>
</g>
<g id="circle" >
<path stroke="#001871" stroke-width="0" d="M12+2C8.13+2+5+5.13+5+9C5+14.25+12+22+12+22C12+22+19+14.25+19+9C19+5.13+15.87+2+12+2ZM12+11.5C10.62+11.5+9.5+10.38+9.5+9C9.5+7.62+10.62+6.5+12+6.5C13.38+6.5+14.5+7.62+14.5+9C14.5+10.38+13.38+11.5+12+11.5Z" fill="#001871" stroke-linecap="butt" opacity="1" stroke-linejoin="miter"/>
</g>
</svg>