<svg width="100" height="100" viewBox="0 0 100 100" fill="none" xmlns="http://www.w3.org/2000/svg">
<g filter="url(#filter0_d)">
<path d="M491.394 536.664V551H485.206V536.664H478.878V531.736H497.694V536.664H491.394ZM513.561 531.736H521.233L514.317 539.66L521.373 551H514.065L510.061 543.944L506.701 546.688V551H500.513V531.736H506.701V539.968L513.561 531.736Z" fill="url(#paint0_linear)"/>
</g>
<g filter="url(#filter1_d)">
<path d="M499.999 490.605C500.711 490.605 501.425 490.822 501.969 491.256L518.677 504.6C519.076 504.917 519.445 505.068 519.754 505.068C520.291 505.068 520.647 504.611 520.647 503.768V500.549C520.647 499.223 521.813 498.146 523.25 498.146H529.752C531.189 498.146 532.355 499.223 532.355 500.549V513.118C532.355 514.445 533.236 516.225 534.324 517.094L542.44 523.575C543.528 524.444 543.243 525.148 541.806 525.148H534.958C533.521 525.148 532.355 526.101 532.355 527.276C532.355 528.452 532.355 529.404 532.355 529.404V560.993C532.355 562.32 531.189 563.396 529.752 563.396H470.249C468.812 563.396 467.645 562.32 467.645 560.993V527.553C467.645 526.226 466.479 525.15 465.042 525.15H458.194C456.757 525.15 456.472 524.445 457.56 523.577L498.031 491.257C498.574 490.821 499.287 490.605 499.999 490.605ZM499.999 487C498.319 487 496.713 487.543 495.476 488.528L455.005 520.85C452.345 522.973 453.005 525.287 453.27 525.945C453.536 526.605 454.676 528.753 458.194 528.753H463.74V560.992C463.74 564.305 466.66 567 470.249 567H529.752C533.34 567 536.26 564.305 536.26 560.992V529.403V528.753H541.806C545.324 528.753 546.464 526.605 546.73 525.945C546.995 525.287 547.655 522.972 544.993 520.849L536.879 514.368C536.632 514.151 536.275 513.432 536.26 513.111V500.549C536.26 497.236 533.34 494.541 529.752 494.541H523.25C520.41 494.541 517.989 496.229 517.103 498.575L504.524 488.53C503.286 487.543 501.68 487 499.999 487Z" fill="url(#paint1_linear)"/>
</g>
<path d="M413.669 579.748C413.566 579.587 413.471 579.367 413.383 579.088C413.295 578.809 413.251 578.516 413.251 578.208C413.251 577.636 413.376 577.225 413.625 576.976C413.889 576.727 414.226 576.602 414.637 576.602H424.229C424.332 576.763 424.427 576.983 424.515 577.262C424.603 577.541 424.647 577.834 424.647 578.142C424.647 578.714 424.515 579.125 424.251 579.374C424.002 579.623 423.672 579.748 423.261 579.748H420.819V589.912C420.658 589.956 420.401 590 420.049 590.044C419.712 590.088 419.374 590.11 419.037 590.11C418.7 590.11 418.399 590.081 418.135 590.022C417.886 589.978 417.673 589.89 417.497 589.758C417.321 589.626 417.189 589.443 417.101 589.208C417.013 588.973 416.969 588.665 416.969 588.284V579.748H413.669ZM440.634 589.912C440.472 589.956 440.216 590 439.864 590.044C439.526 590.088 439.189 590.11 438.852 590.11C438.514 590.11 438.214 590.081 437.95 590.022C437.7 589.978 437.488 589.89 437.312 589.758C437.136 589.626 437.004 589.443 436.916 589.208C436.828 588.973 436.784 588.665 436.784 588.284V584.852H432.56V589.912C432.398 589.956 432.142 590 431.79 590.044C431.452 590.088 431.115 590.11 430.778 590.11C430.44 590.11 430.14 590.081 429.876 590.022C429.626 589.978 429.414 589.89 429.238 589.758C429.062 589.626 428.93 589.443 428.842 589.208C428.754 588.973 428.71 588.665 428.71 588.284V576.668C428.871 576.639 429.128 576.602 429.48 576.558C429.832 576.499 430.169 576.47 430.492 576.47C430.829 576.47 431.122 576.499 431.372 576.558C431.636 576.602 431.856 576.69 432.032 576.822C432.208 576.954 432.34 577.137 432.428 577.372C432.516 577.607 432.56 577.915 432.56 578.296V581.816H436.784V576.668C436.945 576.639 437.202 576.602 437.554 576.558C437.906 576.499 438.243 576.47 438.566 576.47C438.903 576.47 439.196 576.499 439.446 576.558C439.71 576.602 439.93 576.69 440.106 576.822C440.282 576.954 440.414 577.137 440.502 577.372C440.59 577.607 440.634 577.915 440.634 578.296V589.912ZM445.691 578.714C445.691 578.083 445.874 577.585 446.241 577.218C446.608 576.851 447.106 576.668 447.737 576.668H454.997C455.1 576.829 455.188 577.042 455.261 577.306C455.349 577.57 455.393 577.849 455.393 578.142C455.393 578.699 455.268 579.095 455.019 579.33C454.784 579.565 454.469 579.682 454.073 579.682H449.431V581.728H454.381C454.484 581.889 454.572 582.102 454.645 582.366C454.733 582.615 454.777 582.887 454.777 583.18C454.777 583.737 454.66 584.133 454.425 584.368C454.19 584.603 453.875 584.72 453.479 584.72H449.431V587.03H455.085C455.188 587.191 455.276 587.404 455.349 587.668C455.437 587.932 455.481 588.211 455.481 588.504C455.481 589.061 455.356 589.465 455.107 589.714C454.872 589.949 454.557 590.066 454.161 590.066H447.737C447.106 590.066 446.608 589.883 446.241 589.516C445.874 589.149 445.691 588.651 445.691 588.02V578.714ZM459.944 578.714C459.944 578.083 460.127 577.585 460.494 577.218C460.86 576.851 461.359 576.668 461.99 576.668H469.25C469.352 576.829 469.44 577.042 469.514 577.306C469.602 577.57 469.646 577.849 469.646 578.142C469.646 578.699 469.521 579.095 469.272 579.33C469.037 579.565 468.722 579.682 468.326 579.682H463.684V581.728H468.634C468.736 581.889 468.824 582.102 468.898 582.366C468.986 582.615 469.03 582.887 469.03 583.18C469.03 583.737 468.912 584.133 468.678 584.368C468.443 584.603 468.128 584.72 467.732 584.72H463.684V587.03H469.338C469.44 587.191 469.528 587.404 469.602 587.668C469.69 587.932 469.734 588.211 469.734 588.504C469.734 589.061 469.609 589.465 469.36 589.714C469.125 589.949 468.81 590.066 468.414 590.066H461.99C461.359 590.066 460.86 589.883 460.494 589.516C460.127 589.149 459.944 588.651 459.944 588.02V578.714ZM478.068 585.05V589.912C477.907 589.956 477.65 590 477.298 590.044C476.946 590.088 476.602 590.11 476.264 590.11C475.927 590.11 475.626 590.081 475.362 590.022C475.113 589.978 474.9 589.89 474.724 589.758C474.548 589.626 474.416 589.443 474.328 589.208C474.24 588.973 474.196 588.665 474.196 588.284V576.668C474.358 576.639 474.614 576.602 474.966 576.558C475.318 576.499 475.656 576.47 475.978 576.47C476.316 576.47 476.609 576.499 476.858 576.558C477.122 576.602 477.342 576.69 477.518 576.822C477.694 576.954 477.826 577.137 477.914 577.372C478.002 577.607 478.046 577.915 478.046 578.296V581.794L482.622 576.536C483.62 576.536 484.331 576.727 484.756 577.108C485.196 577.475 485.416 577.915 485.416 578.428C485.416 578.809 485.321 579.169 485.13 579.506C484.94 579.843 484.632 580.225 484.206 580.65L481.456 583.4C481.823 583.811 482.204 584.236 482.6 584.676C483.011 585.116 483.407 585.549 483.788 585.974C484.184 586.385 484.558 586.781 484.91 587.162C485.277 587.543 485.592 587.873 485.856 588.152C485.856 588.475 485.798 588.761 485.68 589.01C485.563 589.259 485.402 589.472 485.196 589.648C485.006 589.824 484.786 589.956 484.536 590.044C484.287 590.132 484.023 590.176 483.744 590.176C483.143 590.176 482.652 590.029 482.27 589.736C481.889 589.428 481.522 589.069 481.17 588.658L478.068 585.05ZM500.408 585.05V589.912C500.247 589.956 499.99 590 499.638 590.044C499.286 590.088 498.941 590.11 498.604 590.11C498.267 590.11 497.966 590.081 497.702 590.022C497.453 589.978 497.24 589.89 497.064 589.758C496.888 589.626 496.756 589.443 496.668 589.208C496.58 588.973 496.536 588.665 496.536 588.284V576.668C496.697 576.639 496.954 576.602 497.306 576.558C497.658 576.499 497.995 576.47 498.318 576.47C498.655 576.47 498.949 576.499 499.198 576.558C499.462 576.602 499.682 576.69 499.858 576.822C500.034 576.954 500.166 577.137 500.254 577.372C500.342 577.607 500.386 577.915 500.386 578.296V581.794L504.962 576.536C505.959 576.536 506.671 576.727 507.096 577.108C507.536 577.475 507.756 577.915 507.756 578.428C507.756 578.809 507.661 579.169 507.47 579.506C507.279 579.843 506.971 580.225 506.546 580.65L503.796 583.4C504.163 583.811 504.544 584.236 504.94 584.676C505.351 585.116 505.747 585.549 506.128 585.974C506.524 586.385 506.898 586.781 507.25 587.162C507.617 587.543 507.932 587.873 508.196 588.152C508.196 588.475 508.137 588.761 508.02 589.01C507.903 589.259 507.741 589.472 507.536 589.648C507.345 589.824 507.125 589.956 506.876 590.044C506.627 590.132 506.363 590.176 506.084 590.176C505.483 590.176 504.991 590.029 504.61 589.736C504.229 589.428 503.862 589.069 503.51 588.658L500.408 585.05ZM515.367 577.064C515.616 576.917 515.99 576.778 516.489 576.646C517.002 576.514 517.515 576.448 518.029 576.448C518.762 576.448 519.407 576.558 519.965 576.778C520.537 576.983 520.903 577.313 521.065 577.768C521.329 578.531 521.615 579.418 521.923 580.43C522.231 581.442 522.539 582.491 522.847 583.576C523.155 584.647 523.455 585.71 523.749 586.766C524.042 587.807 524.299 588.731 524.519 589.538C524.343 589.743 524.079 589.905 523.727 590.022C523.375 590.154 522.957 590.22 522.473 590.22C522.121 590.22 521.82 590.191 521.571 590.132C521.336 590.073 521.138 589.985 520.977 589.868C520.83 589.751 520.705 589.597 520.603 589.406C520.515 589.215 520.434 588.995 520.361 588.746L519.965 587.228H515.983C515.865 587.668 515.748 588.123 515.631 588.592C515.513 589.061 515.396 589.516 515.279 589.956C515.073 590.029 514.853 590.088 514.619 590.132C514.399 590.191 514.127 590.22 513.805 590.22C513.057 590.22 512.499 590.095 512.133 589.846C511.781 589.582 511.605 589.223 511.605 588.768C511.605 588.563 511.634 588.357 511.693 588.152C511.751 587.947 511.817 587.705 511.891 587.426C511.993 587.03 512.133 586.539 512.309 585.952C512.499 585.365 512.705 584.735 512.925 584.06C513.145 583.371 513.379 582.667 513.629 581.948C513.878 581.229 514.113 580.555 514.333 579.924C514.553 579.279 514.751 578.707 514.927 578.208C515.117 577.709 515.264 577.328 515.367 577.064ZM518.007 579.902C517.801 580.518 517.567 581.207 517.303 581.97C517.053 582.718 516.826 583.481 516.621 584.258H519.349C519.143 583.466 518.931 582.696 518.711 581.948C518.505 581.185 518.315 580.503 518.139 579.902H518.007ZM532.35 585.688V589.912C532.188 589.956 531.932 590 531.58 590.044C531.242 590.088 530.905 590.11 530.568 590.11C530.23 590.11 529.93 590.081 529.666 590.022C529.416 589.978 529.204 589.89 529.028 589.758C528.866 589.626 528.742 589.443 528.654 589.208C528.566 588.973 528.522 588.665 528.522 588.284V577.922C528.522 577.614 528.602 577.379 528.764 577.218C528.94 577.042 529.174 576.903 529.468 576.8C529.966 576.624 530.546 576.499 531.206 576.426C531.866 576.338 532.57 576.294 533.318 576.294C535.342 576.294 536.867 576.719 537.894 577.57C538.92 578.421 539.434 579.572 539.434 581.024C539.434 581.933 539.199 582.711 538.73 583.356C538.26 584.001 537.703 584.5 537.058 584.852C537.586 585.571 538.106 586.245 538.62 586.876C539.133 587.507 539.536 588.079 539.83 588.592C539.683 589.105 539.412 589.501 539.016 589.78C538.634 590.044 538.202 590.176 537.718 590.176C537.395 590.176 537.116 590.139 536.882 590.066C536.647 589.993 536.442 589.89 536.266 589.758C536.09 589.626 535.928 589.465 535.782 589.274C535.635 589.083 535.496 588.878 535.364 588.658L533.516 585.688H532.35ZM533.736 582.762C534.293 582.762 534.733 582.623 535.056 582.344C535.378 582.051 535.54 581.625 535.54 581.068C535.54 580.511 535.356 580.093 534.99 579.814C534.638 579.521 534.073 579.374 533.296 579.374C533.076 579.374 532.9 579.381 532.768 579.396C532.636 579.411 532.489 579.433 532.328 579.462V582.762H533.736ZM547.138 577.064C547.387 576.917 547.761 576.778 548.26 576.646C548.773 576.514 549.287 576.448 549.8 576.448C550.533 576.448 551.179 576.558 551.736 576.778C552.308 576.983 552.675 577.313 552.836 577.768C553.1 578.531 553.386 579.418 553.694 580.43C554.002 581.442 554.31 582.491 554.618 583.576C554.926 584.647 555.227 585.71 555.52 586.766C555.813 587.807 556.07 588.731 556.29 589.538C556.114 589.743 555.85 589.905 555.498 590.022C555.146 590.154 554.728 590.22 554.244 590.22C553.892 590.22 553.591 590.191 553.342 590.132C553.107 590.073 552.909 589.985 552.748 589.868C552.601 589.751 552.477 589.597 552.374 589.406C552.286 589.215 552.205 588.995 552.132 588.746L551.736 587.228H547.754C547.637 587.668 547.519 588.123 547.402 588.592C547.285 589.061 547.167 589.516 547.05 589.956C546.845 590.029 546.625 590.088 546.39 590.132C546.17 590.191 545.899 590.22 545.576 590.22C544.828 590.22 544.271 590.095 543.904 589.846C543.552 589.582 543.376 589.223 543.376 588.768C543.376 588.563 543.405 588.357 543.464 588.152C543.523 587.947 543.589 587.705 543.662 587.426C543.765 587.03 543.904 586.539 544.08 585.952C544.271 585.365 544.476 584.735 544.696 584.06C544.916 583.371 545.151 582.667 545.4 581.948C545.649 581.229 545.884 580.555 546.104 579.924C546.324 579.279 546.522 578.707 546.698 578.208C546.889 577.709 547.035 577.328 547.138 577.064ZM549.778 579.902C549.573 580.518 549.338 581.207 549.074 581.97C548.825 582.718 548.597 583.481 548.392 584.258H551.12C550.915 583.466 550.702 582.696 550.482 581.948C550.277 581.185 550.086 580.503 549.91 579.902H549.778ZM562.339 590.066C561.708 590.066 561.21 589.883 560.843 589.516C560.476 589.149 560.293 588.651 560.293 588.02V576.646C560.454 576.617 560.711 576.58 561.063 576.536C561.415 576.477 561.752 576.448 562.075 576.448C562.412 576.448 562.706 576.477 562.955 576.536C563.219 576.58 563.439 576.668 563.615 576.8C563.791 576.932 563.923 577.115 564.011 577.35C564.099 577.585 564.143 577.893 564.143 578.274V586.964H569.181C569.284 587.125 569.379 587.345 569.467 587.624C569.555 587.888 569.599 588.167 569.599 588.46C569.599 589.047 569.474 589.465 569.225 589.714C568.976 589.949 568.646 590.066 568.235 590.066H562.339ZM572.446 583.312C572.446 582.168 572.622 581.156 572.974 580.276C573.341 579.396 573.832 578.663 574.448 578.076C575.079 577.475 575.812 577.02 576.648 576.712C577.499 576.404 578.416 576.25 579.398 576.25C580.381 576.25 581.29 576.404 582.126 576.712C582.977 577.02 583.718 577.475 584.348 578.076C584.979 578.663 585.47 579.396 585.822 580.276C586.189 581.156 586.372 582.168 586.372 583.312C586.372 584.456 586.196 585.475 585.844 586.37C585.492 587.25 585.001 587.991 584.37 588.592C583.754 589.179 583.021 589.626 582.17 589.934C581.32 590.242 580.396 590.396 579.398 590.396C578.401 590.396 577.477 590.242 576.626 589.934C575.776 589.611 575.042 589.149 574.426 588.548C573.81 587.947 573.326 587.206 572.974 586.326C572.622 585.446 572.446 584.441 572.446 583.312ZM576.406 583.312C576.406 584.647 576.678 585.644 577.22 586.304C577.763 586.964 578.489 587.294 579.398 587.294C580.322 587.294 581.056 586.964 581.598 586.304C582.141 585.644 582.412 584.647 582.412 583.312C582.412 581.992 582.141 581.002 581.598 580.342C581.07 579.682 580.344 579.352 579.42 579.352C578.511 579.352 577.778 579.682 577.22 580.342C576.678 580.987 576.406 581.977 576.406 583.312Z" fill="url(#paint2_linear)"/>
<g clip-path="url(#clip0)">
<path fill-rule="evenodd" clip-rule="evenodd" d="M509.51 524.144L499.081 513.715C498.164 512.797 499.692 510.607 497.936 508.851L494.733 507L494.057 507.676L495.823 509.442C496.499 510.118 495.993 511.639 495.314 512.318C494.641 512.991 493.119 513.499 492.443 512.823L490.676 511.057L490 511.733L491.851 514.936C493.598 516.683 495.825 515.191 496.715 516.081L507.144 526.51C507.458 526.821 507.883 526.994 508.325 526.993C508.767 526.992 509.19 526.815 509.503 526.503C509.815 526.19 509.992 525.767 509.993 525.325C509.994 524.883 509.821 524.458 509.51 524.144ZM508.834 525.834C508.767 525.9 508.688 525.953 508.601 525.989C508.514 526.025 508.421 526.044 508.327 526.044C508.233 526.044 508.139 526.025 508.052 525.989C507.965 525.953 507.886 525.9 507.82 525.834C507.753 525.767 507.7 525.688 507.664 525.601C507.628 525.514 507.61 525.421 507.61 525.327C507.61 525.233 507.628 525.139 507.664 525.052C507.7 524.965 507.753 524.886 507.82 524.82C507.954 524.685 508.137 524.61 508.327 524.61C508.517 524.61 508.699 524.685 508.834 524.82C508.968 524.954 509.044 525.137 509.044 525.327C509.044 525.517 508.968 525.699 508.834 525.834Z" fill="url(#paint3_linear)"/>
<path d="M496.736 509.467L494.502 507.23L494.057 507.676L495.823 509.442C496.499 510.118 495.993 511.639 495.314 512.318C494.641 512.991 493.119 513.499 492.443 512.823L490.676 511.057L490.281 511.452L492.516 513.69C492.821 513.995 493.299 514.156 493.899 514.156C494.797 514.156 495.789 513.791 496.311 513.269C497.195 512.385 497.573 510.304 496.736 509.467ZM509.149 524.59L499.155 514.594C498.947 514.386 498.67 514.271 498.375 514.271C498.081 514.271 497.804 514.386 497.596 514.594C497.389 514.801 497.273 515.082 497.273 515.374C497.273 515.667 497.389 515.947 497.596 516.154L507.59 526.149C507.798 526.358 508.075 526.472 508.37 526.472C508.664 526.472 508.941 526.358 509.149 526.149C509.356 525.942 509.472 525.662 509.472 525.369C509.472 525.077 509.356 524.797 509.149 524.59ZM508.834 525.834C508.767 525.9 508.688 525.953 508.601 525.989C508.514 526.025 508.421 526.044 508.327 526.044C508.233 526.044 508.139 526.025 508.052 525.989C507.965 525.953 507.886 525.9 507.82 525.834C507.753 525.767 507.7 525.688 507.664 525.601C507.628 525.514 507.61 525.421 507.61 525.327C507.61 525.233 507.628 525.139 507.664 525.052C507.7 524.965 507.753 524.886 507.82 524.82C507.954 524.685 508.137 524.61 508.327 524.61C508.517 524.61 508.699 524.685 508.834 524.82C508.968 524.954 509.044 525.137 509.044 525.327C509.044 525.517 508.968 525.699 508.834 525.834V525.834Z" fill="#DE77A1" fill-opacity="0.12"/>
<path fill-rule="evenodd" clip-rule="evenodd" d="M506 509.8L508.6 507.8L510 509.2L508 511.8H507L501 517.8L500 516.8L506 510.8V509.8Z" fill="url(#paint4_linear)"/>
<path fill-rule="evenodd" clip-rule="evenodd" d="M500.5 517.3L501 517.8L507 511.8H508L510 509.2L509.3 508.5L500.5 517.3Z" fill="url(#paint5_linear)"/>
<path fill-rule="evenodd" clip-rule="evenodd" d="M498.502 516.219L498.673 516.388L491.154 523.832C491.042 523.943 490.953 524.074 490.892 524.219C490.831 524.364 490.8 524.52 490.8 524.677C490.8 524.834 490.831 524.99 490.892 525.135C490.953 525.28 491.042 525.411 491.154 525.522L492.177 526.535C492.649 527.002 493.211 527.2 493.683 526.734L501.403 519.091L501.574 519.26C501.762 519.446 502.068 519.446 502.256 519.26C502.445 519.073 502.445 518.771 502.256 518.584L499.185 515.543C498.996 515.357 498.69 515.357 498.502 515.543C498.314 515.73 498.313 516.032 498.502 516.219Z" fill="url(#paint6_linear)"/>
<path fill-rule="evenodd" clip-rule="evenodd" d="M500.05 517.75L491.719 526.081L492.177 526.535C492.649 527.002 493.211 527.201 493.683 526.734L501.397 519.097L500.05 517.75Z" fill="url(#paint7_linear)"/>
</g>
<defs>
<filter id="filter0_d" x="476.878" y="529.736" width="50.495" height="27.264" filterUnits="userSpaceOnUse" color-interpolation-filters="sRGB">
<feFlood flood-opacity="0" result="BackgroundImageFix"/>
<feColorMatrix in="SourceAlpha" type="matrix" values="0 0 0 0 0 0 0 0 0 0 0 0 0 0 0 0 0 0 127 0"/>
<feOffset dx="2" dy="2"/>
<feGaussianBlur stdDeviation="2"/>
<feColorMatrix type="matrix" values="0 0 0 0 0 0 0 0 0 0 0 0 0 0 0 0 0 0 0.25 0"/>
<feBlend mode="normal" in2="BackgroundImageFix" result="effect1_dropShadow"/>
<feBlend mode="normal" in="SourceGraphic" in2="effect1_dropShadow" result="shape"/>
</filter>
<filter id="filter1_d" x="449" y="487" width="102" height="88" filterUnits="userSpaceOnUse" color-interpolation-filters="sRGB">
<feFlood flood-opacity="0" result="BackgroundImageFix"/>
<feColorMatrix in="SourceAlpha" type="matrix" values="0 0 0 0 0 0 0 0 0 0 0 0 0 0 0 0 0 0 127 0"/>
<feOffset dy="4"/>
<feGaussianBlur stdDeviation="2"/>
<feColorMatrix type="matrix" values="0 0 0 0 0 0 0 0 0 0 0 0 0 0 0 0 0 0 0.25 0"/>
<feBlend mode="normal" in2="BackgroundImageFix" result="effect1_dropShadow"/>
<feBlend mode="normal" in="SourceGraphic" in2="effect1_dropShadow" result="shape"/>
</filter>
<linearGradient id="paint0_linear" x1="519" y1="534" x2="482" y2="556" gradientUnits="userSpaceOnUse">
<stop stop-color="#001871"/>
<stop offset="0.9375" stop-color="#DE77A1"/>
</linearGradient>
<linearGradient id="paint1_linear" x1="538" y1="517" x2="450" y2="527" gradientUnits="userSpaceOnUse">
<stop offset="0.0365088" stop-color="#001871"/>
<stop offset="0.895833" stop-color="#DE77A1"/>
</linearGradient>
<linearGradient id="paint2_linear" x1="500" y1="567" x2="443" y2="610" gradientUnits="userSpaceOnUse">
<stop stop-color="#001871"/>
<stop offset="1" stop-color="#DE77A1"/>
</linearGradient>
<linearGradient id="paint3_linear" x1="490" y1="517" x2="515.5" y2="511.5" gradientUnits="userSpaceOnUse">
<stop stop-color="#DE77A1"/>
<stop offset="1" stop-color="#001871"/>
</linearGradient>
<linearGradient id="paint4_linear" x1="505" y1="507.8" x2="505" y2="517.8" gradientUnits="userSpaceOnUse">
<stop stop-color="#001871"/>
<stop offset="1" stop-color="#DE77A1"/>
</linearGradient>
<linearGradient id="paint5_linear" x1="473.5" y1="500.5" x2="473" y2="532.5" gradientUnits="userSpaceOnUse">
<stop stop-color="#001871"/>
<stop offset="1" stop-color="#DE77A1"/>
</linearGradient>
<linearGradient id="paint6_linear" x1="510" y1="505.5" x2="496.5" y2="519.5" gradientUnits="userSpaceOnUse">
<stop offset="0.120749" stop-color="#001871"/>
<stop offset="1" stop-color="#DE77A1"/>
</linearGradient>
<linearGradient id="paint7_linear" x1="495.5" y1="509.5" x2="489" y2="526" gradientUnits="userSpaceOnUse">
<stop stop-color="#001871"/>
<stop offset="0.803745" stop-color="#DE77A1" stop-opacity="0"/>
</linearGradient>
<clipPath id="clip0">
<rect width="20" height="20" fill="white" transform="translate(490 507)"/>
</clipPath>
</defs>
</svg>
